<svg xmlns="http://www.w3.org/2000/svg" viewBox="0 0 13.74 12.25"><defs><style>.cls-1{fill:#fff;}</style></defs><g id="Layer_2" data-name="Layer 2"><g id="Layer_1-2" data-name="Layer 1"><path class="cls-1" d="M13.74.68a.64.64,0,0,0-.25-.49A.89.89,0,0,0,13,0H.77A.84.84,0,0,0,.21.19.63.63,0,0,0,0,.68V11.57a.63.63,0,0,0,.21.49.71.71,0,0,0,.56.19H7.33V7.49H5.55V5.66H7.33V4.29a2.29,2.29,0,0,1,.73-1.8A3,3,0,0,1,10,1.86c.61,0,1.16,0,1.59,0V3.58h-1.1a1.08,1.08,0,0,0-.83.25,1,1,0,0,0-.18.65V5.66h2l-.28,1.83H9.48v4.76H13a.76.76,0,0,0,.55-.19.72.72,0,0,0,.22-.49Z"/></g></g></svg>