<svg xmlns="http://www.w3.org/2000/svg" viewBox="0 0 13.56 13.24"><defs><style>.cls-1{fill:#fff;}</style></defs><g id="Layer_2" data-name="Layer 2"><g id="Layer_1-2" data-name="Layer 1"><path class="cls-1" d="M4.54,10.64l-.06-.06s-.05,0-.1,0-.14.06-.14.11,0,.11.14.11S4.54,10.72,4.54,10.64Zm-.85-.11c0-.06.06-.08.17-.06s.11.06.11.11,0,.08-.06.08-.08,0-.11,0a.14.14,0,0,1-.11-.05S3.66,10.55,3.69,10.53Zm1.2-.06c.09,0,.14,0,.14.08a.14.14,0,0,1-.11.14H4.81s0,0,0-.11S4.79,10.5,4.89,10.47ZM6.7,0a7.07,7.07,0,0,1,3.44.88,6.92,6.92,0,0,1,2.49,2.37,6.78,6.78,0,0,1,.93,3.42,7,7,0,0,1-1.28,4.08A6.33,6.33,0,0,1,9,13.21a.34.34,0,0,1-.36-.06.31.31,0,0,1-.11-.27v-2.3A1.63,1.63,0,0,0,8,9.32a6.35,6.35,0,0,0,1.5-.27,2.26,2.26,0,0,0,1.18-.82,3.57,3.57,0,0,0,.46-1.94,2.37,2.37,0,0,0-.19-.9,5.34,5.34,0,0,0-.52-.69,2.78,2.78,0,0,0,.14-.65,4,4,0,0,0-.19-1.21A1.45,1.45,0,0,0,9.65,3a7.93,7.93,0,0,0-.76.39l-.36.24a6.43,6.43,0,0,0-1.75-.24,5.85,5.85,0,0,0-1.69.24l-.36-.24c-.3-.17-.57-.28-.79-.39a1.38,1.38,0,0,0-.74-.11A2.37,2.37,0,0,0,3,4.05a1.42,1.42,0,0,0,.11.63,4.26,4.26,0,0,0-.5.76,2,2,0,0,0-.13.85A3.32,3.32,0,0,0,2.93,8.2a2,2,0,0,0,1.14.85,6.25,6.25,0,0,0,1.48.27,1.51,1.51,0,0,0-.44.93,1.38,1.38,0,0,1-.9.17,1.26,1.26,0,0,1-1.09-.74,1.88,1.88,0,0,0-.44-.49c-.14-.06-.27-.14-.41-.19L2.08,9c-.22,0-.33,0-.33.11a.23.23,0,0,0,.14.19L2,9.38a2.3,2.3,0,0,1,.39.35,3.23,3.23,0,0,1,.27.44l.11.22a1,1,0,0,0,.52.63,1.68,1.68,0,0,0,.79.25,2.33,2.33,0,0,0,.69,0l.3,0,0,1.67a.32.32,0,0,1-.13.27.3.3,0,0,1-.33.06,6.3,6.3,0,0,1-3.36-2.46A6.7,6.7,0,0,1,0,6.67,6.53,6.53,0,0,1,.88,3.28,6.29,6.29,0,0,1,3.28.88,6.78,6.78,0,0,1,6.7,0ZM2.65,9.43s.08,0,.14,0,0,.11,0,.14-.09,0-.14,0S2.6,9.49,2.65,9.43Zm-.3-.22a.17.17,0,0,1,.14,0s0,.06,0,.11-.08.06-.13,0S2.32,9.27,2.35,9.21Zm.9,1h.09s.05,0,.08.06a.1.1,0,0,1,.05.08v.08c-.05.06-.13.06-.19,0s0,0,0-.11A.13.13,0,0,1,3.25,10.17Zm-.32-.38H3s.05,0,.08.05.05.14,0,.17S3,10,3,10,3,10,2.93,10,2.87,9.82,2.93,9.79Z"/></g></g></svg>