<svg xmlns="http://www.w3.org/2000/svg" viewBox="0 0 13.74 12.25"><defs><style>.cls-1{fill:#fff;}</style></defs><g id="Layer_2" data-name="Layer 2"><g id="Layer_1-2" data-name="Layer 1"><path class="cls-1" d="M6.87,3a3.88,3.88,0,0,1,1.75.44A3,3,0,0,1,9.9,4.57a2.91,2.91,0,0,1,.5,1.55,2.93,2.93,0,0,1-.5,1.59A3,3,0,0,1,8.62,8.86a4,4,0,0,1-3.53,0A3.13,3.13,0,0,1,3.8,7.71a3,3,0,0,1-.46-1.59A2.94,2.94,0,0,1,3.8,4.57,3.07,3.07,0,0,1,5.09,3.42,3.87,3.87,0,0,1,6.87,3Zm0,5.2a2.37,2.37,0,0,0,1.62-.61,1.89,1.89,0,0,0,.68-1.45,2,2,0,0,0-.68-1.44,2.47,2.47,0,0,0-1.62-.61,2.38,2.38,0,0,0-1.63.61,1.87,1.87,0,0,0-.67,1.44,1.79,1.79,0,0,0,.67,1.45A2.29,2.29,0,0,0,6.87,8.18Zm4.51-5.34a.8.8,0,0,0-.25-.52,1,1,0,0,0-.58-.21.84.84,0,0,0-.58.21.65.65,0,0,0-.25.52.57.57,0,0,0,.25.52.7.7,0,0,0,.58.22.68.68,0,0,0,.55-.22A.81.81,0,0,0,11.38,2.84Zm2.33.74c0,.52,0,1.37,0,2.54s0,2.06-.06,2.58A5.61,5.61,0,0,1,13.43,10a3.2,3.2,0,0,1-.86,1.2,3.89,3.89,0,0,1-1.32.74,6.06,6.06,0,0,1-1.53.24c-.58,0-1.53,0-2.85,0s-2.3,0-2.88,0A4.74,4.74,0,0,1,2.48,12a3.3,3.3,0,0,1-1.35-.71A3.21,3.21,0,0,1,.31,10,4.13,4.13,0,0,1,0,8.7c0-.52,0-1.37,0-2.58s0-2,0-2.54A4.27,4.27,0,0,1,.31,2.21,3.36,3.36,0,0,1,1.13,1,3.81,3.81,0,0,1,2.48.27,7.57,7.57,0,0,1,4,.05c.58,0,1.53,0,2.88,0S9.14,0,9.72.05a7.91,7.91,0,0,1,1.53.22A4,4,0,0,1,12.57,1a3.35,3.35,0,0,1,.86,1.17A7.67,7.67,0,0,1,13.71,3.58ZM12.24,9.73a6,6,0,0,0,.24-1.47c0-.38,0-1,0-1.7V5.69c0-.74,0-1.31,0-1.7a6,6,0,0,0-.24-1.47,2.24,2.24,0,0,0-1.32-1.18,8.52,8.52,0,0,0-1.66-.22c-.46,0-1.1,0-1.9,0h-1c-.83,0-1.47,0-1.9,0a8.52,8.52,0,0,0-1.66.22A2.16,2.16,0,0,0,1.5,2.52,4.8,4.8,0,0,0,1.26,4c0,.41,0,1,0,1.7v.87c0,.74,0,1.32,0,1.7A4.8,4.8,0,0,0,1.5,9.73a2.15,2.15,0,0,0,1.32,1.18,6.67,6.67,0,0,0,1.66.22c.43,0,1.07,0,1.9,0h1c.83,0,1.47,0,1.9,0a6.67,6.67,0,0,0,1.66-.22A2.24,2.24,0,0,0,12.24,9.73Z"/></g></g></svg>