<svg xmlns="http://www.w3.org/2000/svg" viewBox="0 0 15.7 11.38"><defs><style>.cls-1{fill:#fff;}</style></defs><g id="Layer_2" data-name="Layer 2"><g id="Layer_1-2" data-name="Layer 1"><path class="cls-1" d="M14.08,2.84a6.78,6.78,0,0,0,1.62-1.5,6.21,6.21,0,0,1-1.84.46A2.93,2.93,0,0,0,15.27.22a6.6,6.6,0,0,1-2,.68A3.79,3.79,0,0,0,12.14.25,3.18,3.18,0,0,0,10.86,0a3.56,3.56,0,0,0-1.6.38A3.16,3.16,0,0,0,8.1,1.45a2.42,2.42,0,0,0-.43,1.42,2.46,2.46,0,0,0,.06.66A9.53,9.53,0,0,1,4,2.65,8.39,8.39,0,0,1,1.1.52,2.67,2.67,0,0,0,.64,2,2.46,2.46,0,0,0,1,3.34a3.23,3.23,0,0,0,1,1A2.85,2.85,0,0,1,.64,4v.06a2.55,2.55,0,0,0,.74,1.8,3.1,3.1,0,0,0,1.84,1A4.41,4.41,0,0,1,2.36,7a3.76,3.76,0,0,1-.58,0,2.7,2.7,0,0,0,1.1,1.42,3.22,3.22,0,0,0,1.9.55,6.93,6.93,0,0,1-4,1.23,5.8,5.8,0,0,1-.77,0,9.54,9.54,0,0,0,4.94,1.29,9.63,9.63,0,0,0,5-1.29A8.19,8.19,0,0,0,13,7a7.43,7.43,0,0,0,1.08-3.8C14.11,3,14.08,2.93,14.08,2.84Z"/></g></g></svg>